<svg version="1.1" xmlns="http://www.w3.org/2000/svg" width="986px" height="1126px" transform="rotate(0) scale(1, 1)">
<path d="M0 0 C0.75587402 0.33467285 1.51174805 0.6693457 2.29052734 1.01416016 C38.28863542 16.96833658 73.38512871 39.68353915 103.109375 65.5078125 C105.77418199 67.80530826 108.49413717 70.00096212 111.25 72.1875 C122.69882887 81.53213022 133.1622982 92.08280234 143.625 102.5 C144.72533569 103.59332642 144.72533569 103.59332642 145.84790039 104.70874023 C149.88319992 108.756073 153.74111161 112.90210222 157.47216797 117.23144531 C159.3513291 119.40668393 161.29973955 121.51349755 163.25 123.625 C168.29548053 129.22352646 172.89696798 135.11762852 177.49902344 141.07958984 C178.98902375 142.98595655 180.50906809 144.86391668 182.0390625 146.73828125 C203.45510561 173.22731678 221.125641 202.7831058 236.9375 232.875 C237.25380371 233.47270203 237.57010742 234.07040405 237.89599609 234.68621826 C238.78207619 236.36684559 239.65504772 238.0543647 240.52734375 239.7421875 C241.28132446 241.19407471 241.28132446 241.19407471 242.05053711 242.67529297 C242.36385986 243.44244629 242.67718262 244.20959961 243 245 C242.67 245.66 242.34 246.32 242 247 C241.5875 246.36610352 241.175 245.73220703 240.75 245.07910156 C236.76890252 238.96305169 232.78166363 232.85105303 228.78955078 226.7421875 C227.42674444 224.65391453 226.06860563 222.56288092 224.71484375 220.46875 C215.96702923 207.08747769 206.33234308 194.19765104 196 182 C195.10765282 180.93394525 194.21574952 179.86751885 193.32421875 178.80078125 C188.36881764 172.88893861 183.33576108 167.0631258 178.140625 161.359375 C176.78220498 159.86213834 175.4367458 158.35295592 174.109375 156.828125 C168.78835528 150.752945 163.13774587 145.03079501 157.4375 139.3125 C156.232146 138.10025757 156.232146 138.10025757 155.00244141 136.86352539 C150.71225555 132.5843355 146.34724164 128.45946954 141.75317383 124.50805664 C139.5018393 122.57148884 137.31554428 120.5673407 135.125 118.5625 C130.23645779 114.16207244 125.19276696 110.03496711 120 106 C119.12093994 105.31212402 119.12093994 105.31212402 118.22412109 104.61035156 C54.41963521 54.76057625 -19.70915786 20.84158949 -100.0625 8.6875 C-101.03380859 8.54022461 -102.00511719 8.39294922 -103.00585938 8.24121094 C-123.15572006 5.40908766 -143.23553352 4.62475078 -163.5625 4.6875 C-165.40760162 4.69023422 -165.40760162 4.69023422 -167.28997803 4.69302368 C-185.72320089 4.73895041 -203.74446291 5.28378755 -222 8 C-223.16789062 8.16097168 -224.33578125 8.32194336 -225.5390625 8.48779297 C-295.01429938 18.1670919 -361.41879925 45.15112829 -419 85 C-419.62841797 85.4340918 -420.25683594 85.86818359 -420.90429688 86.31542969 C-429.87062646 92.54018678 -438.49045914 99.16731669 -447 106 C-447.98097656 106.78503906 -448.96195313 107.57007813 -449.97265625 108.37890625 C-455.35122304 112.72866139 -460.55667694 117.22618653 -465.66796875 121.88671875 C-467.75034736 123.77376537 -469.86503064 125.61058233 -472 127.4375 C-476.20538129 131.07644218 -480.04338168 135.05434846 -483.8984375 139.05859375 C-486 141 -486 141 -488 141 C-488.25885986 141.58555664 -488.51771973 142.17111328 -488.78442383 142.77441406 C-490.09221724 145.1688396 -491.49736101 146.71093329 -493.44921875 148.609375 C-494.47499023 149.61871094 -494.47499023 149.61871094 -495.52148438 150.6484375 C-496.23626953 151.34195313 -496.95105469 152.03546875 -497.6875 152.75 C-503.04674177 157.97513655 -508.14689734 163.30033104 -513 169 C-513.70056519 169.81041748 -513.70056519 169.81041748 -514.4152832 170.63720703 C-520.73056025 177.94423546 -526.79911434 185.41072387 -532.59863281 193.13476562 C-533.58168716 194.44322124 -534.56833036 195.74898458 -535.55761719 197.05273438 C-553.03674324 220.11733425 -568.20206504 244.59093476 -582 270 C-582.68618408 271.25151855 -582.68618408 271.25151855 -583.38623047 272.52832031 C-597.26854785 297.94825884 -608.53525666 324.64268173 -618 352 C-618.61004883 353.75038574 -618.61004883 353.75038574 -619.23242188 355.53613281 C-631.66380481 391.5599921 -639.48378385 428.50550435 -646 466 C-546.91230067 455.03812037 -456.87241193 427.00140405 -342 337 C-337.47021287 332.38174047 -332.87040516 327.9680272 -327.96875 323.74609375 C-324.66248374 320.81375046 -321.59236578 317.65455229 -318.5 314.5 C-310.82427324 306.72409754 -310.82427324 306.72409754 -306.625 303.25 C-302.72274968 299.94229855 -299.66544327 296.08852366 -296.48828125 292.09375 C-293.71138062 288.64115142 -290.83591132 285.28792385 -287.9375 281.9375 C-283.82890516 277.17191607 -279.81980345 272.34847597 -275.9140625 267.4140625 C-265.42845658 254.18935953 -254.55509769 241.30173477 -243 229 C-242.34773438 228.29359375 -241.69546875 227.5871875 -241.0234375 226.859375 C-229.95940475 215.27745135 -216.04380199 206.18259917 -203 197 C-202.3807666 196.56333008 -201.7615332 196.12666016 -201.12353516 195.67675781 C-154.97651525 163.39304513 -101.97614106 143.09823948 -46 137 C-45.13286377 136.90428711 -44.26572754 136.80857422 -43.37231445 136.70996094 C43.9669193 128.22909564 130.65596816 155.75634272 199 210 C200.00289062 210.78890625 201.00578125 211.5778125 202.0390625 212.390625 C209.34866193 218.24673059 216.21859307 224.54731477 223 231 C223.53334961 231.50466797 224.06669922 232.00933594 224.61621094 232.52929688 C231.52840915 239.10710216 238.00107132 245.79587587 243 254 C243 254.66 243 255.32 243 256 C235.03992853 255.4992008 227.11917841 254.82616887 219.1875 254 C181.3566264 250.16848856 143.03702838 250.6284587 106 260 C104.72455322 260.32242676 104.72455322 260.32242676 103.42333984 260.65136719 C73.92665822 268.34315436 46.78414075 282.45237841 22 300 C21.41508789 300.41378906 20.83017578 300.82757813 20.22753906 301.25390625 C13.05130985 306.37918015 6.3928996 311.9315162 0 318 C-0.49081055 318.45826172 -0.98162109 318.91652344 -1.48730469 319.38867188 C-31.79926659 347.83092398 -53.87272743 388.58168165 -63 429 C-63.17337891 429.75893555 -63.34675781 430.51787109 -63.52539062 431.29980469 C-68.77360608 455.25093029 -69.72330269 480.22122627 -71.69873047 504.60580444 C-76.17712556 559.66556541 -85.26707244 613.1668594 -103.1875 665.5625 C-103.43971313 666.30034729 -103.69192627 667.03819458 -103.95178223 667.79840088 C-106.99918334 676.66946455 -110.2599221 685.39155827 -114 694 C-113.11441406 694.08121094 -112.22882812 694.16242187 -111.31640625 694.24609375 C-105.33901004 695.10555932 -99.66615878 697.21521095 -93.9375 699.0625 C-52.76985759 712.10156576 -12.61667119 719.55020778 30.51147461 720.61254883 C32.47482652 720.66284078 34.43805364 720.71824442 36.40112305 720.77856445 C39.28676557 720.86721009 42.17246003 720.94110628 45.05859375 721.01171875 C45.9243956 721.04077805 46.79019745 721.06983734 47.68223572 721.09977722 C52.67521811 721.20188041 57.06543311 720.70138885 61.90965271 719.4962616 C64.93365488 718.77834446 67.96047634 718.4787183 71.05078125 718.17578125 C72.38389238 718.03777827 73.71689593 717.89873311 75.04980469 717.75878906 C75.74279663 717.68696411 76.43578857 717.61513916 77.14978027 717.5411377 C146.04784343 710.25739483 217.90733178 688.08981532 275.49072266 648.71533203 C279.85942514 645.72890436 284.26481041 642.79697629 288.6652832 639.85766602 C291.0932464 638.23569967 293.51436889 636.60425039 295.93041992 634.96459961 C297.04472475 634.21332793 298.15906244 633.46210499 299.2734375 632.7109375 C300.74949463 631.71006104 300.74949463 631.71006104 302.25537109 630.68896484 C304.79104498 629.12858485 307.20398475 628.00253749 310 627 C309.50140867 634.55937641 308.37917365 641.7121187 306.5625 649.0625 C306.30227051 650.12412354 306.04204102 651.18574707 305.77392578 652.27954102 C293.69289552 700.48995014 276.2733445 746.60649769 254 791 C253.41041504 792.17643066 252.82083008 793.35286133 252.21337891 794.56494141 C231.96771754 834.75210916 207.04717686 872.61465465 178 907 C177.23091309 907.91773193 177.23091309 907.91773193 176.44628906 908.85400391 C164.67690702 922.893797 152.05521871 936.03354176 139.125 949 C138.58493317 949.54274567 138.04486633 950.08549133 137.48843384 950.64468384 C131.50654579 956.64907343 125.47363473 962.52079841 119 968 C117.86995315 968.98436921 116.74101706 969.97001525 115.61328125 970.95703125 C108.54363424 977.09047631 101.35800811 982.99798175 93.86230469 988.60595703 C92.54008613 989.59571423 91.22071149 990.58927569 89.90332031 991.58544922 C70.49735752 1006.24782625 50.17361408 1019.04518275 29 1031 C28.20867676 1031.44939941 27.41735352 1031.89879883 26.60205078 1032.36181641 C-6.34648405 1050.90938829 -42.47937339 1063.69379464 -79 1073 C-79.9497168 1073.24588867 -80.89943359 1073.49177734 -81.87792969 1073.74511719 C-93.57344106 1076.73619835 -105.39237606 1078.8301985 -117.3125 1080.6875 C-118.59157227 1080.89012451 -119.87064453 1081.09274902 -121.18847656 1081.30151367 C-142.01226359 1084.40642892 -162.90306625 1085.3875191 -183.9375 1085.3125 C-185.03973907 1085.31034485 -186.14197815 1085.3081897 -187.27761841 1085.30596924 C-280.8563949 1085.01454365 -370.4204486 1056.9523975 -446.75048828 1002.6015625 C-448.76613429 1001.16650305 -450.78626668 999.73811908 -452.80859375 998.3125 C-456.22347388 995.89922279 -459.61730761 993.45815927 -463 991 C-463.62825684 990.54447754 -464.25651367 990.08895508 -464.90380859 989.61962891 C-475.04845417 982.23284807 -484.67911243 974.40138721 -494 966 C-494.85295654 965.23534424 -495.70591309 964.47068848 -496.5847168 963.68286133 C-504.39668681 956.60983489 -511.89922704 949.25522118 -519.33813477 941.79223633 C-521.32389676 939.80107223 -523.3150074 937.81536779 -525.30664062 935.83007812 C-531.41450196 929.72574234 -537.46390111 923.63640471 -543 917 C-543.90015416 915.95496404 -544.80116434 914.91066468 -545.703125 913.8671875 C-551.83215112 906.66652184 -557.76894992 899.34523768 -563.55224609 891.86425781 C-565.03053888 889.96067539 -566.52423891 888.06993568 -568.01953125 886.1796875 C-577.38108205 874.25278885 -585.74567828 861.71057645 -594 849 C-594.54543457 848.16178711 -595.09086914 847.32357422 -595.65283203 846.45996094 C-607.24092085 828.57951414 -618.52219127 810.37586016 -627.14550781 790.859375 C-628.4197764 788.08656656 -629.82961368 785.38536278 -631.24365234 782.68164062 C-632 781 -632 781 -632 779 C-628.33057139 780.37061399 -625.06140503 782.03354788 -621.69921875 784.0390625 C-620.72275391 784.61914062 -619.74628906 785.19921875 -618.74023438 785.796875 C-617.22913086 786.70179688 -617.22913086 786.70179688 -615.6875 787.625 C-614.66076172 788.23601563 -613.63402344 788.84703125 -612.57617188 789.4765625 C-610.04886125 790.98119394 -607.52356601 792.4890994 -605 794 C-605.36125977 793.32348389 -605.72251953 792.64696777 -606.09472656 791.94995117 C-637.19171562 733.47366426 -658.07997412 671.26958904 -669 606 C-669.20850586 604.76137207 -669.41701172 603.52274414 -669.63183594 602.24658203 C-670.95650091 594.18578346 -672.03589733 586.11118327 -673 578 C-673.14953125 576.82228027 -673.2990625 575.64456055 -673.453125 574.43115234 C-678.91166158 529.85114291 -678.84692041 481.52215984 -673 437 C-672.82558772 435.59306873 -672.65228387 434.18599969 -672.47998047 432.77880859 C-665.5817677 376.94356899 -651.72683454 321.56445969 -629 270 C-628.55446777 268.98631348 -628.10893555 267.97262695 -627.64990234 266.92822266 C-624.53887648 259.90126716 -621.31084553 252.93487915 -618 246 C-617.29472168 244.52152588 -617.29472168 244.52152588 -616.57519531 243.01318359 C-597.01422996 202.30862908 -572.03751661 163.63634145 -542.34619141 129.55664062 C-540.88593223 127.86810009 -539.44763986 126.16240123 -538.01171875 124.453125 C-532.65159423 118.09239845 -527.17381389 112.0233312 -521.2109375 106.2109375 C-519.29111732 104.29111732 -517.54608948 102.33558734 -515.8125 100.25 C-510.67243192 94.24921297 -504.68136485 89.04857144 -498.86621094 83.71777344 C-497.18383715 82.16921484 -495.51482933 80.60808111 -493.8515625 79.0390625 C-487.68229076 73.26674122 -481.30545098 67.96090562 -474.6171875 62.80859375 C-472.1949086 60.9412298 -469.80826318 59.03953197 -467.4453125 57.09765625 C-401.66830898 3.13432016 -319.00350507 -28.95623912 -235 -39 C-234.03400879 -39.11859375 -233.06801758 -39.2371875 -232.07275391 -39.359375 C-152.94280835 -48.62175497 -72.13047195 -32.49181214 0 0 Z M-55.8125 182.75 C-57.96927712 186.83652506 -58.6560559 190.73660715 -57.375 195.15625 C-55.24567265 199.91174775 -52.85525409 202.80139438 -48 205 C-43.22086345 205.82369319 -39.9519884 205.49362362 -35.625 203.25 C-30.89491593 199.19564222 -29.42657877 196.45128062 -28.9375 190.24609375 C-29.0325534 186.83011212 -30.06075206 184.77958871 -32 182 C-36.65514546 177.79901507 -39.53035959 176.6456391 -45.6796875 176.71484375 C-50.07668712 177.25521576 -52.73511858 179.77873518 -55.8125 182.75 Z M-647 476 C-648.85478001 477.85478001 -648.48282932 480.89620459 -648.71875 483.39453125 C-648.81295227 484.38666878 -648.81295227 484.38666878 -648.90905762 485.39884949 C-649.04232733 486.81525429 -649.17331464 488.23187535 -649.30224609 489.64868164 C-649.49323328 491.73845875 -649.69321879 493.8272115 -649.89453125 495.91601562 C-651.58183517 513.81914954 -652.20952824 531.70940048 -652.1875 549.6875 C-652.18689575 550.6137619 -652.1862915 551.5400238 -652.18566895 552.49435425 C-652.04676995 631.7828122 -636.6335287 710.42371109 -606.0625 783.625 C-605.61398682 784.70394531 -605.16547363 785.78289062 -604.70336914 786.89453125 C-601.07400599 795.36875504 -597.76707155 800.01683193 -589.625 804.3125 C-588.17021018 805.1034999 -586.71578886 805.89517786 -585.26171875 806.6875 C-584.53774902 807.07808594 -583.8137793 807.46867187 -583.06787109 807.87109375 C-580.15698194 809.46022615 -577.30037006 811.13871482 -574.4375 812.8125 C-565.4396701 817.95848426 -556.23767757 822.71261846 -547.01904297 827.44873047 C-545.06587562 828.45232301 -543.11426733 829.45895809 -541.16455078 830.46923828 C-470.57586819 866.98233246 -393.35382895 893.08467332 -306 904 C-304.87851562 904.13277344 -303.75703125 904.26554687 -302.6015625 904.40234375 C-233.39793516 912.1594254 -166.90055771 900.51759173 -103 874 C-106.4486737 872.83200627 -108.70742343 873.18812089 -112.20703125 874.07421875 C-113.25366943 874.32792236 -114.30030762 874.58162598 -115.37866211 874.84301758 C-116.51182861 875.12169678 -117.64499512 875.40037598 -118.8125 875.6875 C-129.31719189 878.15340697 -139.73880788 879.98356801 -150.4375 881.3125 C-151.70891846 881.47129639 -152.98033691 881.63009277 -154.2902832 881.79370117 C-165.70832248 883.16350482 -177.03148251 884.15179134 -188.53515625 884.203125 C-189.59945862 884.21018463 -190.66376099 884.21724426 -191.76031494 884.22451782 C-216.32398587 884.35012269 -240.6141186 884.09458618 -265 881 C-265.77096008 880.90289734 -266.54192017 880.80579468 -267.33624268 880.70574951 C-343.00247088 871.0743911 -414.93119805 848.22053388 -483 814 C-484.00836914 813.49903809 -485.01673828 812.99807617 -486.05566406 812.48193359 C-510.28405595 800.41908712 -532.84619279 785.48396704 -555 770 C-556.3003418 769.09241943 -556.3003418 769.09241943 -557.62695312 768.16650391 C-567.51356729 761.23381714 -576.92641608 753.96487352 -586 746 C-586.8146875 745.30777344 -587.629375 744.61554688 -588.46875 743.90234375 C-595.03297147 738.30135043 -595.03297147 738.30135043 -597 735 C-596.16267527 720.36125378 -567.24051417 699.16532574 -557 690 C-554.26937299 687.63455821 -551.47087273 685.36274333 -548.640625 683.1171875 C-546.23745378 681.19038454 -543.90487245 679.19904695 -541.58007812 677.17895508 C-501.03944395 642.11932444 -457.25327778 621.80491058 -403.125 621.75 C-402.34053497 621.74866058 -401.55606995 621.74732117 -400.74783325 621.74594116 C-380.86549256 621.75323743 -361.19806487 623.58699282 -341.62866211 627.1730957 C-338.15870035 627.7903272 -335.35230484 628.28867823 -332 627 C-338.64539144 620.5950668 -346.2167581 615.63652194 -353.828125 610.48242188 C-357.39294801 608.04923782 -360.91564326 605.55730112 -364.4375 603.0625 C-365.14189209 602.56403564 -365.84628418 602.06557129 -366.57202148 601.55200195 C-368.00118616 600.54033509 -369.43014111 599.5283719 -370.85888672 598.51611328 C-372.98926656 597.0076003 -375.12123471 595.50136479 -377.25390625 593.99609375 C-378.3044519 593.25456055 -378.3044519 593.25456055 -379.3762207 592.49804688 C-380.79486072 591.49738299 -382.21397094 590.49738537 -383.63354492 589.49804688 C-387.13898561 587.02862387 -390.63424405 584.54708956 -394.109375 582.03515625 C-412.522103 568.7747637 -431.93711551 557.56052041 -452 547 C-453.12438477 546.40429199 -454.24876953 545.80858398 -455.40722656 545.19482422 C-511.95933357 515.28094862 -570.58833715 494.54818648 -632.6875 479.3125 C-633.41198334 479.13352173 -634.13646667 478.95454346 -634.88290405 478.7701416 C-636.90340468 478.27339933 -638.92576438 477.78533227 -640.94921875 477.30078125 C-642.09737061 477.02403564 -643.24552246 476.74729004 -644.4284668 476.4621582 C-645.70137573 476.23338989 -645.70137573 476.23338989 -647 476 Z " fill="#000000" transform="translate(676,41)"/>
<path d="M0 0 C1.40064697 0.00737183 1.40064697 0.00737183 2.82958984 0.01489258 C27.4160293 0.42898445 46.46594982 11.90344982 63.3828125 28.8203125 C72.58724633 38.52396986 77.18110935 48.59724184 80.875 61.3125 C79.85180664 61.37195801 78.82861328 61.43141602 77.77441406 61.49267578 C25.69146633 64.60223103 -24.587678 73.79614378 -72.125 96.3125 C-73.02009277 96.73273438 -73.91518555 97.15296875 -74.83740234 97.5859375 C-89.45047082 104.54830905 -102.87646521 113.11641774 -116.30053711 122.1027832 C-117.2986869 122.77093803 -117.2986869 122.77093803 -118.31700134 123.45259094 C-119.56001703 124.28689044 -120.8012695 125.12382621 -122.04029846 125.96403503 C-132.98833026 133.33952969 -132.98833026 133.33952969 -137.24609375 133.23828125 C-157.98162583 126.57027433 -173.41554078 103.61902607 -183.125 85.3125 C-190.89843873 69.48861803 -195.21649023 52.93916367 -195.375 35.3125 C-195.3843457 34.59408936 -195.39369141 33.87567871 -195.40332031 33.13549805 C-195.37859632 29.09835543 -194.99869364 25.91160936 -193.125 22.3125 C-190.54102646 20.12606085 -189.02795914 20.31769862 -185.625 20.5 C-182.23922349 21.01236224 -179.04029259 21.89886491 -175.75 22.8359375 C-168.67668182 24.61125437 -161.89114946 24.81032866 -154.625 24.75 C-153.94983337 24.74529694 -153.27466675 24.74059387 -152.57904053 24.73574829 C-124.36304282 24.47016561 -97.45686743 17.64043319 -70.10673523 11.35687256 C-61.47891086 9.3802756 -52.83680638 7.48416891 -44.16973877 5.68740845 C-42.79953769 5.40299002 -41.42983542 5.11615412 -40.06072998 4.82650757 C-26.83884912 2.03326139 -13.54679618 -0.08753783 0 0 Z " fill="#000000" transform="translate(583.125,89.6875)"/>
<path d="M0 0 C2.29158942 2.89818662 4.07862366 5.83140544 5.75 9.125 C6.19859375 9.99382812 6.6471875 10.86265625 7.109375 11.7578125 C7.40328125 12.49773437 7.6971875 13.23765625 8 14 C7.67 14.66 7.34 15.32 7 16 C5.63058132 14.0942007 4.27988837 12.17493427 2.9375 10.25 C2.18339844 9.18265625 1.42929687 8.1153125 0.65234375 7.015625 C-1 4 -1 4 -0.74609375 1.609375 C-0.49988281 1.07828125 -0.25367188 0.5471875 0 0 Z " fill="#000000" transform="translate(911,272)"/>
</svg>